<?xml version="1.0" encoding="utf-8"?>
<!-- Generator: Adobe Illustrator 25.4.0, SVG Export Plug-In . SVG Version: 6.00 Build 0)  -->
<svg version="1.1" id="Capa_1" xmlns="http://www.w3.org/2000/svg" xmlns:xlink="http://www.w3.org/1999/xlink" x="0px" y="0px"
	 viewBox="0 0 207.5 197.6" style="enable-background:new 0 0 207.5 197.6;" xml:space="preserve">
<style type="text/css">
	.st0{fill:#C0E5D8;}
</style>
<g>
	<g>
		<path class="st0" d="M18.9,173.5h-3.8v-2.4h10v2.4h-3.8v12.4h-2.5V173.5z"/>
		<path class="st0" d="M28.4,171.1h4.7c2.8,0,4.8,1.6,4.8,4.2c0,2.1-1.3,3.4-2.9,3.8c1.8,0.9,3.1,3.4,3.6,6.8H36
			c-0.6-3.5-2.2-5.9-4-5.9h-1.1v5.9h-2.5V171.1z M33.1,173.5h-2.2v4.2h2.2c1.3,0,2.2-0.7,2.2-2.1C35.4,174.2,34.4,173.5,33.1,173.5z
			"/>
		<path class="st0" d="M48.7,170.9c4.3,0,7.6,3.3,7.6,7.6c0,4.3-3.3,7.6-7.6,7.6s-7.6-3.3-7.6-7.6C41.1,174.2,44.4,170.9,48.7,170.9
			z M48.7,183.7c2.9,0,5.1-2.3,5.1-5.2c0-2.9-2.2-5.2-5.1-5.2c-2.9,0-5.1,2.3-5.1,5.2C43.6,181.4,45.8,183.7,48.7,183.7z"/>
		<path class="st0" d="M70.3,185.2c-1,0.6-2.3,0.9-3.6,0.9c-4.3,0-7.6-3.3-7.6-7.6c0-4.3,3.3-7.6,7.6-7.6c1.3,0,2.6,0.3,3.6,0.9v2.9
			c-0.9-0.8-2.2-1.3-3.6-1.3c-2.9,0-5.1,2.3-5.1,5.2c0,2.9,2.2,5.2,5.1,5.2c1.4,0,2.7-0.5,3.6-1.3V185.2z"/>
		<path class="st0" d="M82.2,182.3h-5.6l-1.3,3.7h-2.8l5.5-14.8h2.8l5.5,14.8h-2.8L82.2,182.3z M77.3,179.9h4l-2-5.5L77.3,179.9z"/>
		<path class="st0" d="M94.6,171.1h5.3c4.5,0,7.3,3.1,7.3,7.4c0,4.3-2.8,7.4-7.3,7.4h-5.3V171.1z M97,173.5v10.1h2.8
			c3,0,4.7-2.2,4.7-5c0-2.9-1.7-5-4.7-5H97z"/>
		<path class="st0" d="M110.9,185.9v-14.8h8.2v2.4h-5.7v3.8h5.3v2.4h-5.3v3.9h5.7v2.4H110.9z"/>
		<path class="st0" d="M139.5,185.2c-1,0.6-2.3,0.9-3.6,0.9c-4.3,0-7.6-3.3-7.6-7.6c0-4.3,3.3-7.6,7.6-7.6c1.3,0,2.6,0.3,3.6,0.9
			v2.9c-0.9-0.8-2.2-1.3-3.6-1.3c-2.9,0-5.1,2.3-5.1,5.2c0,2.9,2.2,5.2,5.1,5.2c1.4,0,2.7-0.5,3.6-1.3V185.2z"/>
		<path class="st0" d="M151.4,182.3h-5.6l-1.3,3.7h-2.8l5.5-14.8h2.8l5.5,14.8h-2.8L151.4,182.3z M146.6,179.9h4l-2-5.5L146.6,179.9
			z"/>
		<path class="st0" d="M165.7,174.3c-0.8-0.6-2-1.1-3.2-1.1c-1.4,0-2.2,0.7-2.2,1.7c0,0.6,0.4,1.2,1.2,1.7l2.3,1.4
			c1.9,1.1,2.6,2.3,2.6,3.9c0,2.2-1.6,4.2-4.8,4.2c-1.5,0-2.8-0.4-3.7-0.8v-2.8c0.8,0.6,2.2,1.3,3.6,1.3c1.5,0,2.3-0.8,2.3-1.8
			c0-0.7-0.4-1.2-1.4-1.8l-2.3-1.4c-1.8-1.1-2.4-2.3-2.4-3.8c0-2,1.3-4.1,4.9-4.1c1.2,0,2.3,0.3,3.2,0.8V174.3z"/>
		<path class="st0" d="M178,182.3h-5.6l-1.3,3.7h-2.8l5.5-14.8h2.8l5.5,14.8h-2.8L178,182.3z M173.1,179.9h4l-2-5.5L173.1,179.9z"/>
		<path class="st0" d="M192.3,174.3c-0.8-0.6-2-1.1-3.2-1.1c-1.4,0-2.2,0.7-2.2,1.7c0,0.6,0.4,1.2,1.2,1.7l2.3,1.4
			c1.9,1.1,2.6,2.3,2.6,3.9c0,2.2-1.6,4.2-4.8,4.2c-1.5,0-2.8-0.4-3.7-0.8v-2.8c0.8,0.6,2.2,1.3,3.6,1.3c1.5,0,2.3-0.8,2.3-1.8
			c0-0.7-0.4-1.2-1.4-1.8l-2.3-1.4c-1.8-1.1-2.4-2.3-2.4-3.8c0-2,1.3-4.1,4.9-4.1c1.2,0,2.3,0.3,3.2,0.8V174.3z"/>
	</g>
	<g>
		<g>
			<path class="st0" d="M42.8,103.8L15.4,57.7c-2.5-4.2,0.5-9.6,5.5-9.6h0c2.3,0,4.4,1.2,5.5,3.2l21,36.2c1.3,2.2,4.5,2.2,5.7,0
				l21.1-36.2c1.1-1.9,3.2-3.1,5.5-3.1h0.1c4.9,0,8,5.4,5.4,9.6L57.6,104c-0.6,1-0.9,2.1-0.9,3.3v37.2c0,3.5-2.8,6.3-6.3,6.3H50
				c-3.5,0-6.3-2.8-6.3-6.3v-37.4C43.7,105.9,43.4,104.8,42.8,103.8z"/>
			<g>
				<path class="st0" d="M122.9,62.5c14.4-6,29.6-3.1,40.4,6.1c1.9,1.6,4.6,2,6.9,1l0,0c4.6-1.9,5.6-8.1,1.7-11.4
					c-14.5-12.2-34.7-15.6-54-7.6c-19.3,8-31.1,24.9-32.6,43.7c-0.4,5,4.6,8.7,9.3,6.8l0.2-0.1c2.3-1,3.9-3.1,4.1-5.6
					C100,81.3,108.6,68.5,122.9,62.5z"/>
				<path class="st0" d="M153.7,136.4c-14.3,6-29.4,3.2-40.3-6.1c-1.9-1.6-4.6-2-6.9-1.1l-0.1,0.1c-4.6,1.9-5.6,8.1-1.7,11.4
					c14.5,12.2,34.7,15.6,54,7.6s31.1-24.9,32.6-43.7c0.4-5-4.6-8.7-9.3-6.8l0,0c-2.3,1-3.9,3.2-4.1,5.7
					C176.8,117.6,168.1,130.4,153.7,136.4z"/>
			</g>
			<circle class="st0" cx="181.5" cy="81.6" r="5.8"/>
			<circle class="st0" cx="96.8" cy="117" r="5.8"/>
		</g>
		<g>
			<path class="st0" d="M157.1,41.1c-1.7,0-3.4-0.6-4.7-1.9l-10.4-10.4c-2.2-2.2-5.9-2.2-8.1,0L123.7,39c-2.2,2.2-5.8,2.8-8.4,1
				c-3.6-2.4-3.9-7.3-1.1-10.2l14.6-14.6c1.8-1.8,4.2-3.2,6.7-3.7c4.3-0.8,8.5,0.5,11.4,3.5l14.6,14.6c2.2,2.2,2.7,6.1,0.9,8.6
				C161.2,40.2,159.1,41.1,157.1,41.1z"/>
		</g>
	</g>
</g>
</svg>
