<?xml version="1.0" encoding="utf-8"?>
<!-- Generator: Adobe Illustrator 25.4.0, SVG Export Plug-In . SVG Version: 6.00 Build 0)  -->
<svg version="1.1" id="Capa_1" xmlns="http://www.w3.org/2000/svg" xmlns:xlink="http://www.w3.org/1999/xlink" x="0px" y="0px"
	 viewBox="0 0 100 125" style="enable-background:new 0 0 100 125;" xml:space="preserve">
<style type="text/css">
	.st0{fill:#C0E5D8;}
</style>
<g>
	<path class="st0" d="M71.8,16H27.2c-6.4,0-11.6,5.2-11.6,11.6v44.6c0,6.4,5.2,11.6,11.6,11.6h44.6c6.4,0,11.6-5.2,11.6-11.6V27.6
		C83.5,21.2,78.3,16,71.8,16z M81.5,72.3c0,5.3-4.3,9.6-9.6,9.6H27.2c-5.3,0-9.6-4.3-9.6-9.6V27.6c0-5.3,4.3-9.6,9.6-9.6h44.6
		c5.3,0,9.6,4.3,9.6,9.6V72.3z"/>
	<path class="st0" d="M49.5,30.9c-10.5,0-19.1,8.5-19.1,19.1S39,69,49.5,69s19.1-8.5,19.1-19.1l0,0C68.6,39.4,60.1,30.9,49.5,30.9z
		 M49.5,67c-9.4,0-17.1-7.6-17.1-17.1s7.6-17.1,17.1-17.1s17.1,7.6,17.1,17.1v0C66.6,59.3,59,67,49.5,67L49.5,67z"/>
	<path class="st0" d="M69.7,24.5c-2.9,0-5.2,2.4-5.2,5.3s2.4,5.2,5.3,5.2c2.9,0,5.2-2.4,5.2-5.2C75,26.8,72.6,24.5,69.7,24.5
		L69.7,24.5z M69.7,33c-1.8,0-3.3-1.5-3.2-3.3c0-1.8,1.5-3.3,3.3-3.2c1.8,0,3.2,1.5,3.2,3.3C73,31.5,71.5,33,69.7,33L69.7,33z"/>
	<path class="st0" d="M41.2,41.6c4-4.1,10.5-4.6,15.1-1.3c0.4,0.4,1,0.3,1.4-0.1s0.3-1-0.1-1.4c-0.1,0-0.1-0.1-0.2-0.1
		c-6.2-4.4-14.8-3-19.1,3.2c-3.4,4.8-3.4,11.2,0,15.9c0.2,0.3,0.5,0.4,0.8,0.4c0.2,0,0.4-0.1,0.6-0.2c0.5-0.3,0.6-0.9,0.3-1.4
		C36.7,52.1,37.2,45.7,41.2,41.6L41.2,41.6z"/>
	<path class="st0" d="M59.3,41.7c-0.5,0.3-0.5,0.9-0.2,1.4c3.8,5.3,2.6,12.6-2.7,16.4c-4.1,2.9-9.6,2.9-13.7,0
		c-0.5-0.3-1.1-0.2-1.4,0.2c-0.3,0.5-0.2,1.1,0.2,1.4c2.3,1.7,5.1,2.5,8,2.5c0.3,0,0.7,0,1.1,0c7.6-0.6,13.2-7.2,12.6-14.8
		c-0.2-2.5-1.1-4.9-2.5-6.9C60.4,41.5,59.8,41.4,59.3,41.7C59.3,41.8,59.3,41.7,59.3,41.7z"/>
</g>
</svg>
