<?xml version="1.0" encoding="utf-8"?>
<!-- Generator: Adobe Illustrator 25.4.0, SVG Export Plug-In . SVG Version: 6.00 Build 0)  -->
<svg version="1.1" id="Capa_1" xmlns="http://www.w3.org/2000/svg" xmlns:xlink="http://www.w3.org/1999/xlink" x="0px" y="0px"
	 viewBox="0 0 100 125" style="enable-background:new 0 0 100 125;" xml:space="preserve">
<style type="text/css">
	.st0{fill:#455F5D;}
</style>
<g>
	<path class="st0" d="M71.85,16H27.22c-6.41,0.01-11.61,5.2-11.62,11.61v44.64c0.01,6.42,5.2,11.61,11.62,11.62h44.63
		c6.42-0.01,11.62-5.2,11.63-11.62V27.61C83.46,21.2,78.26,16.01,71.85,16z M81.49,72.26c-0.01,5.32-4.32,9.63-9.64,9.63H27.22
		c-5.32-0.01-9.63-4.31-9.64-9.63V27.61c0.02-5.31,4.33-9.6,9.64-9.61h44.63c5.32,0,9.63,4.31,9.64,9.63V72.26z"/>
	<path class="st0" d="M49.54,30.87c-10.53,0-19.06,8.53-19.06,19.06s8.53,19.06,19.06,19.06S68.6,60.46,68.6,49.93l0,0
		C68.58,39.41,60.06,30.89,49.54,30.87z M49.54,67.01c-9.43,0.01-17.08-7.64-17.09-17.07s7.64-17.08,17.07-17.09
		c9.43-0.01,17.08,7.64,17.09,17.07c0,0,0,0.01,0,0.01C66.59,59.35,58.96,66.98,49.54,67V67.01z"/>
	<path class="st0" d="M69.73,24.49c-2.9,0.01-5.24,2.37-5.23,5.27s2.37,5.24,5.27,5.23c2.89-0.01,5.23-2.36,5.23-5.25
		C74.99,26.83,72.64,24.48,69.73,24.49C69.73,24.49,69.73,24.49,69.73,24.49z M69.73,33c-1.8-0.01-3.26-1.47-3.25-3.27
		c0.01-1.8,1.47-3.26,3.27-3.25c1.8,0.01,3.25,1.46,3.25,3.26c0,1.8-1.46,3.26-3.26,3.26C69.74,33,69.73,33,69.73,33z"/>
	<path class="st0" d="M41.22,41.62c4.05-4.07,10.45-4.6,15.12-1.26c0.41,0.37,1.04,0.34,1.41-0.07c0.37-0.41,0.34-1.04-0.07-1.41
		c-0.06-0.05-0.12-0.1-0.19-0.13c-6.17-4.4-14.75-2.96-19.15,3.21c-3.4,4.77-3.4,11.17,0,15.94c0.19,0.26,0.49,0.42,0.81,0.42
		c0.21,0,0.41-0.07,0.58-0.19c0.45-0.31,0.57-0.92,0.27-1.38c-3.34-4.67-2.81-11.07,1.26-15.12L41.22,41.62z"/>
	<path class="st0" d="M59.34,41.74c-0.45,0.32-0.55,0.94-0.23,1.39c3.77,5.27,2.56,12.61-2.71,16.38c-4.09,2.93-9.58,2.93-13.67,0
		c-0.45-0.31-1.06-0.21-1.38,0.23c-0.32,0.45-0.22,1.07,0.23,1.39c2.34,1.66,5.13,2.55,8,2.54c0.35,0,0.71,0,1.06,0
		c7.56-0.6,13.2-7.21,12.61-14.77c-0.2-2.49-1.07-4.87-2.52-6.9c-0.32-0.45-0.94-0.56-1.39-0.24V41.74z"/>
</g>
</svg>
