<?xml version="1.0" encoding="utf-8"?>
<!-- Generator: Adobe Illustrator 25.4.0, SVG Export Plug-In . SVG Version: 6.00 Build 0)  -->
<svg version="1.1" id="Capa_1" xmlns="http://www.w3.org/2000/svg" xmlns:xlink="http://www.w3.org/1999/xlink" x="0px" y="0px"
	 viewBox="0 0 74.8 76.1" style="enable-background:new 0 0 74.8 76.1;" xml:space="preserve">
<style type="text/css">
	.st0{fill:#C0E5D8;}
</style>
<g>
	<path class="st0" d="M37.4,72.7c-6.1,0-12.1-1.6-17.4-4.6L6.1,72.3c-1,0.3-2,0-2.8-0.7c-0.7-0.7-1-1.8-0.7-2.8l4.2-13.6
		c-8-13.6-5.6-30.7,5.7-41.7c13.7-13.4,36-13.4,49.7,0c0.2,0.2,0.4,0.4,0.6,0.6c6.4,6.5,9.8,15.2,9.7,24.3
		c-0.1,9.2-3.8,17.7-10.3,24.1C55.6,69.1,46.8,72.7,37.4,72.7z M20.3,65.9l0.4,0.2c5.1,3,10.9,4.5,16.8,4.5c8.8,0,17.2-3.4,23.4-9.6
		c6.2-6,9.6-14.1,9.7-22.7c0.1-8.6-3.2-16.8-9.2-22.9h0c-0.2-0.2-0.3-0.4-0.5-0.5C48,2.3,26.9,2.3,14,14.9
		C3.2,25.4,1.1,41.7,8.8,54.5L9,54.9L4.6,69.4c-0.1,0.3,0,0.6,0.2,0.8c0.2,0.2,0.5,0.3,0.8,0.2L20.3,65.9z"/>
	<path class="st0" d="M47.7,58.1c-1.5,0-3-0.2-4.4-0.7c-1.9-0.6-3.8-1.3-5.6-2c-8.2-3.5-14.2-10.6-17-14.6l-0.2-0.2
		c-1.6-2.1-4.3-6.4-4.3-11.1c-0.1-3.5,1.3-6.9,3.9-9.4l0.1-0.1c1.1-1.3,2.8-2,4.5-2h2c1.3,0,3.2,0.4,4.5,3.3l1.2,2.9
		c0.5,1.3,1.5,3.5,1.6,3.7c0.7,1.2,0.8,2.8,0.1,4.1l-0.1,0.2c-0.3,0.7-0.7,1.3-1.2,1.9l-0.5,0.6c-0.1,0.2-0.3,0.3-0.4,0.5
		c1.2,1.8,2.6,3.4,4.1,4.9c1.8,1.6,3.9,2.8,6.1,3.8l0.1,0.1c1-1.2,1.8-2.1,2.1-2.6c0.9-1.3,2.5-2.6,5.4-1.5c0.7,0.3,3.2,1.4,5.4,2.5
		l0.2,0.1c0.4,0.2,0.8,0.4,0.9,0.4l0.6,0.3c0.9,0.3,1.8,1,2.4,1.8l0.5,0.6l-0.1,0.3c0.7,2.2-0.5,5.7-0.6,6.1
		c-1.3,3.5-6.2,5.8-8.5,6.2C49.5,58,48.6,58.1,47.7,58.1z M26.7,19.9h-2c-1.1,0-2.3,0.5-3,1.4l-0.2,0.2c-2.2,2.1-3.3,5-3.3,8
		c0,4.1,2.5,8,3.9,10l0.2,0.2c2.7,3.8,8.3,10.6,16.1,13.9c1.8,0.7,3.6,1.4,5.4,2c2,0.6,4.2,0.7,6.2,0.4c1.9-0.3,6-2.3,7-4.9
		c0.6-1.6,1-3.9,0.5-4.9l-0.1-0.2c-0.4-0.5-0.9-0.9-1.5-1l-0.1,0l-0.6-0.3c-0.2-0.1-0.5-0.2-1-0.5L54.1,44c-1.5-0.7-4.5-2.2-5.2-2.4
		c-1-0.4-2.1-0.5-3,0.8c-0.6,0.9-2.2,2.8-2.7,3.3l-0.5,0.6L42,45.9c-0.2-0.1-0.3-0.1-0.5-0.2l-0.2-0.1c-2.4-1-4.7-2.4-6.7-4.1
		c-1.9-1.7-3.5-3.7-4.9-5.9l-0.4-0.7l0.6-0.6c0.3-0.3,0.6-0.6,0.8-1l0.6-0.6c0.4-0.4,0.7-0.9,0.9-1.4l0.1-0.3c0.4-0.7,0.4-1.6,0-2.3
		c-0.1-0.3-0.7-1.5-1.7-3.9L29.3,22C28.5,20.1,27.6,19.9,26.7,19.9z"/>
</g>
</svg>
